<svg xmlns="http://www.w3.org/2000/svg" viewBox="0 0 213.6541 213.6541" height="213.6541" width="213.6541" xml:space="preserve" id="Krungthai_logo" version="1.1">
    <g transform="matrix(1.33333 0 0 -1.33333 -21.6765 235.3307)" id="logo">
        <g transform="scale(.1)" id="g12">
            <path id="path16" style="display:inline;fill:#01a6e6;fill-opacity:1;fill-rule:evenodd;stroke:none" d="M1764.98 963.801c0-442.446-358.7-801.227-801.289-801.227-442.418 0-801.117 358.781-801.117 801.227 0 442.499 358.699 801.179 801.117 801.179 442.589 0 801.289-358.68 801.289-801.179"/>
            <path id="path18" style="display:inline;fill:#fff;fill-opacity:1;fill-rule:evenodd;stroke:none" d="M1521.57 1243.18s39.8 2.89-4 47.75c0 0-72.82 78.91-212.5 138.66-74.87 32.04-159.05 18.7-151.18-58.75 5.54-54.39-49.29-75.17-92.45-70.19-50.67 5.86-81.116 44.25-73.1 75.85 8.574 33.7 27.79 59.83 56.25 80.11 19.29 13.77 32.75 23.48 67.92 30.22 21.37 4.1 49.38 10.48 56.87-11.96 14.68 7.17 40.7 52.21-43.85 53.02 0 0-12.65 25.28-41.08 20.01 0 0-84.12 76.24-177.649-18.17 0 0-36.719-13.42-38.735-.46 8.321-6.09 21.891 12.39 3.348 18.75-8.711 3.01-18.844-5.44-20.422-13.63-1.25-6.34.738-20.27 19.278-22.94 4.886-.7 13.695 0 13.695 0l-6.137-6.7c-27.949-11.09-55.137-2.5-60.203 15.9 6.547-3.51 13.672.86 15.965 7.63 2.301 6.83-3.067 16.33-13.934 17.79-15.152 2.09-22.351-14.26-19.105-28.63 4.969-22.1 29.047-37.83 59.844-34.03l-5.344-7.43s-30.871-35.78-56.09-76.43c-25.652-41.3-130.117-86.85-112.238 11.52 5.699 31.27-50.735 68.76-148.754 6.38-52.36-33.34-116.649-83.32-164.231-164.25 0 0-21.41-30.94 13.774-31.91 0 0-80.43-79.97-70.907-175.18 0 0 7.161-26.18 26.196-9.54 0 0-30.938-83.289-11.906-154.699 0 0 9.519-40.473 33.332-19.043 0 0 21.328-101.082 66.617-185.652 35.719-66.66 102.359-164.262 76.187-188.086-25.945-23.555-62.57 23.375-56.843 4.465 12.109-39.985 56.531-45.844 80.625-28.246 61.906 45.218-29.258 154.199-57.102 292.773 0 0 19.019 2.383 11.289 47.336 0 0 45.813-16.379 37.789 73.617 0 0 48.496-25.746 48.496 36.149 0 0 49.977-11.895 59.492 54.754 0 0 81.563-11.84 99.977 33.332 0 0 21.414-26.184 61.562 15.75 9.969-28.641 30.235-54.465 56.77-76.317 0 0-5.277-40.234-53.051-54.176 0 0-58.39 22.942-121.449 0-58.129-21.113-34.766-79.039 7.426-65.183-12.789 6.386-16.512 25.535 4.152 29.656 20.637-15.699 42.949-6.613 53.695 7.418 0 0 41.336-28.891 68.598.84 13.215-.813 21.418-19.391 3.277-28.074 35.25-7.079 47.942 27.234 33.371 45.851 0 0 8.247 4.985 17.598 12.203 0 0 11.031 9.961 19.297 21.629 0 0 34.703-25.418 99.012-39.672 0 0-33.59-51.57-83.324-61.511 0 0-70.579 21.316-118.215-6.266 0 0-25.653-12.395-21.664-38.707 2.988-19.746 19.937-33.52 45.461-30.32-10.364 4.757-33.286 28.675-4.153 38.945 19.246-28.117 70.371-7.852 75.832.203 9.785-9.914 52.614-5.891 58.313 8.934 13.707 2.273 33.687-3.985 26.269-28.539 16.578 2.261 43.399 30.254 3.996 52.507 0 0 23.399 10.68 42.153 26.227l28.43 26.465s34.02 12.898 33.43-26.184c26.61 3.141 48.69-19.496 43.33-44.328 0 0-11.53-28.43-52.87-21.051-41.32 7.407-40.56-25.879-9.95-27.836-20.24-5.66-33.85-41.609 33.81-41.769 0 0 14.94-81.652-75.92-73.399-10.768 2.485-9.112 12.411-7.866 20.262 14.846 4.949 16.526 19.82 9.506 26.863-7.55 7.512-24.088 11.293-36.756-2.066-7.828-8.285-10.66-24.406-8.23-40.559-14.86 4.028-22.785 10.25-22.785 21.973 17.355 7.414 4.976 38.406-23.512 27.25-11.551-4.516-20.051-18.336-14.887-40.891 6.934-30.347 48.477-43.543 81.699-47.335 19.871-17.504 50.051-36.063 120.611-25.434 0 0-31.29-151.613-239.072-144.996 0 0-80.75 28.715-56.191 91.312 4.871 12.457 21.684 34.243 38.621 33.782 0 0 28.297-9.309 28.297 14.582 0 0-2.234 17.421-20.324 19.242-18.106 1.816-61.485-1.91-81.324-56.43-8.899-24.519-7.024-64.539 17.234-92.226-78.531 19.293-137.688 74.398-113.898 149.226 12.847 40.359 70.64 79.332 116.503 52.067-1.218-18.59 7.446-33.481 28.516-33.481 17.734 0 27.27 16.125 23.543 35.945-3.332 17.75-28.594 42.297-71.898 44.637-45.848 2.484-131.188-23.375-137.559-118.98-5.879-88.555 54.629-152.368 204.996-172.137l1.949-1.617s91.512-59.739 220.867-27.864c0 0 260.61 49.747 204.89 324.325 0 0 63.75 179.371-74.03 283.558 0 0-3.16 25.582 16.67 4.746 11.81-15.668 59.49-23.8 59.49 9.504 0 0 45.26-40.441 61.57.684 0 0 16.97-48.281 51.7-15.918 0 0-8.56-37.117 8.11-58.547 16.67-21.414 47.63-15.074 47.63-15.074s-47.63-127.746 9.5-132.504c0 0-142.8-285.641-60.1-321.774 28.7-12.543 62.24-6.414 79.3 27.27 14.11 27.914-31.08-26.836-57.26-3.043-31.18 28.32 7.16 97.594 45.2 169.008 52.42 98.32 88.11 170.64 95.21 218.988 0 0 31.2-20.48 40.73 53.316 7.61 59.024-1.43 100.09-7.43 141.88 0 0 40.46-26.18 20.63 66.35 0 0-14.58 67.04-84.22 130.72zm-503.92 297.49c2.89-.38 5.63-1.13 8.21-2.12.51-.86.8-1.82.8-2.89 0-3.26-2.63-5.95-5.91-5.95-3.25 0-5.92 2.69-5.92 5.95 0 2.13 1.15 3.94 2.82 5.01zm-10.85-.52c-.02-.15-.1-.3-.1-.45-.93-7.97 4.75-15.18 12.71-16.12 7.05-.82 13.51 3.57 15.52 10.18 4.03-2.69 7.45-5.69 10.13-8.05-15.38-.22-17.9-7.41-31.16-4.93-6.73 1.26-13.87 8.29-14.259 17.09 2.789 1.26 3.699 1.58 7.159 2.28zm208.48-918.451s7.57 12.469 11.58-5.437c0 0 8.02-96.496-53.62-155.469-41.11-39.305-135.83-95.52-243.26-70.988 0 0 171.46 10.957 215.27 168.148l4.82 17.707s43.2 9.922 65.21 46.039"/>
        </g>
    </g>
</svg>
